<svg xmlns:xlink="http://www.w3.org/1999/xlink" version="1.1" xmlns="http://www.w3.org/2000/svg" viewBox="0 0 163.1 150.9" enable-background="new 0 0 163.1 150.9" width="400"  height="370" ><path fill="#101010" d="M119,12.1c14.4,5.6,30,11.9,37.7,23.3c7.8,11.4,7.7,28.1,3.5,42.2c-4.3,14.2-12.7,25.9-21.1,36.3    c-8.4,10.3-16.8,19.2-26.9,25.8c-10.2,6.7-22.1,11-34.1,11.2c-12,0.2-24.1-3.9-33.8-10.7c-9.7-6.9-17-16.7-23.1-27.2    C15,102.5,10,91.3,5.6,77.6C1.2,63.8-2.6,47.5,2.2,34.8C7.1,22.1,20.7,13,34.8,7.3c14.1-5.8,28.7-8.2,42.7-7C91.4,1.6,104.6,6.6,119,12.1z"></path></svg>